<?xml version="1.0" standalone="no"?>
<!DOCTYPE svg PUBLIC "-//W3C//DTD SVG 20010904//EN"
 "http://www.w3.org/TR/2001/REC-SVG-20010904/DTD/svg10.dtd">
<svg version="1.0" xmlns="http://www.w3.org/2000/svg"
 width="700.000000pt" height="700.000000pt" viewBox="0 0 700.000000 700.000000"
 preserveAspectRatio="xMidYMid meet">
<metadata>
Created by potrace 1.14, written by Peter Selinger 2001-2017
</metadata>
<g transform="translate(0.000000,700.000000) scale(0.100000,-0.100000)"
fill="#000000" stroke="none">
<path d="M3269 6530 c-1 -3 -2 -1367 -2 -3033 -1 -2012 1 -3027 8 -3028 51 -5
434 -3 445 2 13 6 15 351 13 3026 0 1660 -2 3023 -2 3028 -1 10 -460 15 -462
5z"/>
<path d="M1545 5129 c-106 -9 -143 -16 -245 -45 -80 -23 -275 -112 -303 -137
-6 -7 -32 -25 -56 -42 -65 -44 -200 -180 -253 -255 -120 -170 -189 -350 -214
-555 -4 -33 -7 -547 -8 -1143 -1 -955 1 -1082 14 -1083 8 -1 113 -2 233 -3
211 -1 217 0 218 19 0 11 1 221 2 468 l0 447 701 0 701 0 0 -464 c-1 -412 1
-465 15 -468 8 -2 112 -3 230 -3 l215 1 1 1100 c2 1201 3 1191 -56 1366 -132
395 -462 691 -867 775 -51 11 -125 21 -165 22 -40 1 -75 3 -78 5 -3 1 -41 -1
-85 -5z m260 -484 c254 -66 444 -260 510 -521 15 -59 18 -123 19 -462 1 -255
-2 -392 -9 -393 -32 -3 -1363 -4 -1376 -1 -15 3 -17 40 -14 405 3 447 5 469
72 601 90 179 229 299 419 361 110 36 264 40 379 10z"/>
<path d="M4209 5129 c-5 -3 -8 -667 -7 -1634 l3 -1629 725 0 c781 1 803 2 940
41 338 96 605 411 656 771 5 42 5 223 -1 257 -19 104 -43 178 -93 285 -26 58
-107 171 -162 228 l-51 54 45 44 c94 91 192 256 230 386 28 97 36 157 37 267
2 406 -263 768 -651 889 -140 44 -155 45 -923 46 -407 1 -743 -2 -748 -5z
m1538 -486 c162 -64 264 -174 303 -329 41 -160 -5 -326 -122 -443 -47 -45
-143 -106 -185 -116 -10 -3 -34 -8 -53 -13 -19 -4 -258 -8 -529 -8 l-495 1 -1
455 c0 250 3 460 7 466 5 7 161 10 515 9 489 -1 510 -2 560 -22z m-27 -1392
c164 -47 295 -184 334 -348 55 -239 -93 -485 -334 -554 -34 -10 -170 -13 -547
-14 -453 -2 -503 0 -504 14 -1 9 -2 219 -3 467 l-1 451 505 -2 c378 -1 516 -4
550 -14z"/>
</g>
</svg>
